<svg width="1020" height="1020" viewBox="0 0 1020 1020" fill="none" xmlns="http://www.w3.org/2000/svg">
<circle cx="510" cy="510" r="505" stroke="black" stroke-width="10"/>
<path d="M510 410.5C594.223 410.5 662.5 342.223 662.5 258C662.5 173.777 594.223 105.5 510 105.5C425.777 105.5 357.5 173.777 357.5 258C357.5 342.223 425.777 410.5 510 410.5Z" fill="black" stroke="black" stroke-width="5"/>
<path d="M858.639 446.194L858.642 446.25L858.658 446.303C860.681 453.051 859.009 460.354 854.155 468.019C849.299 475.688 841.286 483.668 830.733 491.719C809.629 507.82 778.472 524.127 742.45 538.741C670.405 567.969 579.033 590.371 510.013 590.826C436.497 591.309 345.128 568.908 274.213 539.447C238.755 524.717 208.443 508.235 188.043 491.99C177.842 483.866 170.144 475.821 165.515 468.107C160.888 460.395 159.35 453.059 161.374 446.303L161.39 446.25L161.394 446.194C162.078 436.405 165.917 428.932 172.361 423.316C178.82 417.688 187.928 413.9 199.182 411.564C221.698 406.891 252.628 408.065 287.608 411.726C311.779 414.256 337.849 417.97 364.373 421.748C376.224 423.436 388.166 425.137 400.07 426.751C438.603 431.976 476.73 436.29 510.016 436.29C543.302 436.29 581.43 431.976 619.963 426.751C631.867 425.137 643.809 423.436 655.66 421.748C682.184 417.97 708.253 414.256 732.425 411.726C767.405 408.065 798.334 406.891 820.851 411.564C832.105 413.9 841.213 417.688 847.672 423.316C854.116 428.932 857.955 436.405 858.639 446.194Z" fill="black" stroke="black"/>
<path d="M544.458 701.376C527.13 831.744 604.647 828.924 633.993 870.152C663.339 911.38 627.623 950.68 559.669 944.837C454.649 927.308 390.417 807.453 378.238 701.376C368.404 615.721 390.594 518.597 452.37 518.597C610.518 518.597 571.637 449.81 544.458 701.376Z" fill="black"/>
</svg>
